<svg version="1.1" id="Layer_1" xmlns="http://www.w3.org/2000/svg" xmlns:xlink="http://www.w3.org/1999/xlink" x="0px" y="0px"
	 width="100%" viewBox="0 0 320 320" enable-background="new 0 0 320 320" xml:space="preserve">

<path fill="#CB8704" opacity="1.000000" stroke="none" 
	d="
M149.000000,262.998535 
	C129.184326,262.998535 109.868652,262.998535 89.620186,262.998535 
	C92.516472,259.323212 94.910423,256.113129 97.483810,253.053986 
	C103.670486,245.699554 109.797569,238.284317 116.283371,231.199982 
	C117.825020,229.516068 120.667389,228.175812 122.934914,228.139450 
	C139.071121,227.880753 155.213394,228.001572 171.707870,228.001572 
	C174.886826,182.700226 178.048416,137.646515 181.232208,92.276199 
	C169.591080,92.276199 158.533646,92.276199 146.998383,92.276199 
	C146.998383,104.213936 146.829926,115.998924 147.093063,127.774277 
	C147.180847,131.702728 145.982864,133.090714 142.102158,133.056671 
	C134.808899,132.992676 127.502747,133.097504 120.221809,133.495422 
	C116.756622,133.684814 115.455017,132.238083 115.024345,129.137024 
	C112.700844,112.406670 110.364883,95.677887 107.962219,78.958771 
	C106.931267,71.784790 105.728798,64.635460 104.561272,57.201241 
	C140.062576,57.201241 175.009918,57.201241 210.607788,57.201241 
	C211.488098,125.682510 212.366684,194.029617 213.253265,262.998535 
	C191.690659,262.998535 170.595337,262.998535 149.000000,262.998535 
z"/>
<path fill="#121416" opacity="1.000000" stroke="none" 
	d="
M34.104431,146.075897 
	C53.076668,133.545227 71.778465,121.260185 90.492798,108.994286 
	C95.699669,105.581551 100.943649,102.225449 106.711693,98.493256 
	C105.090637,110.614571 103.624359,122.223114 101.869514,133.787872 
	C101.675980,135.063248 99.999710,136.341721 98.725731,137.190292 
	C83.690254,147.205261 68.600365,157.138535 53.051804,167.405624 
	C61.021454,173.929901 68.708763,180.261063 76.440292,186.537735 
	C80.886864,190.147583 85.540802,193.517578 89.800819,197.331299 
	C90.944580,198.355225 91.631393,200.690323 91.431236,202.285934 
	C90.038002,213.393234 88.355965,224.464310 86.669518,236.223267 
	C79.706665,230.604904 72.966019,225.184296 66.245300,219.739105 
	C51.243374,207.584412 36.208115,195.469788 21.328993,183.166428 
	C19.987547,182.057220 18.870903,179.620621 19.031631,177.931976 
	C19.749130,170.393906 20.874693,162.888245 22.099493,155.411285 
	C22.301559,154.177734 23.526817,152.849884 24.635727,152.077377 
	C27.599819,150.012482 30.757803,148.225922 34.104431,146.075897 
z"/>
<path fill="#121416" opacity="1.000000" stroke="none" 
	d="
M300.296387,165.340332 
	C299.805847,169.717239 299.654053,173.729034 298.737579,177.557785 
	C298.259705,179.554153 296.841492,181.845367 295.157288,182.955338 
	C268.374634,200.606369 241.479980,218.087524 213.811676,236.128616 
	C215.027100,227.667465 216.148621,219.854736 217.277008,212.043015 
	C217.300003,211.883942 217.473129,211.729706 217.459137,211.584518 
	C216.398254,200.582794 223.541290,195.637100 231.825546,190.764847 
	C243.151978,184.103363 253.935730,176.518265 264.932953,169.299896 
	C265.721405,168.782364 266.353455,168.026535 267.249146,167.206787 
	C255.044952,157.207001 243.044098,147.447540 231.173279,137.532425 
	C229.993973,136.547394 228.805496,134.510971 228.980057,133.134857 
	C230.421936,121.766495 232.184540,110.438820 233.957748,98.365433 
	C240.820297,103.849739 247.129883,108.822502 253.364044,113.888100 
	C268.346283,126.062035 283.220001,138.371307 298.314423,150.404037 
	C301.428986,152.886826 303.004211,155.111435 301.374878,159.078857 
	C300.642242,160.862808 300.647491,162.949799 300.296387,165.340332 
z"/>
</svg>